<?xml version="1.0" standalone="no"?>
<!DOCTYPE svg PUBLIC "-//W3C//DTD SVG 20010904//EN"
 "http://www.w3.org/TR/2001/REC-SVG-20010904/DTD/svg10.dtd">
<svg version="1.0" xmlns="http://www.w3.org/2000/svg"
 width="192.000000pt" height="192.000000pt" viewBox="0 0 192.000000 192.000000"
 preserveAspectRatio="xMidYMid meet">
<metadata>
Created by potrace 1.14, written by Peter Selinger 2001-2017
</metadata>
<g transform="translate(0.000000,192.000000) scale(0.100000,-0.100000)"
fill="#000000" stroke="none">
<path d="M165 1882 c-44 -15 -86 -31 -93 -35 -16 -11 -15 -72 4 -165 16 -81
68 -249 89 -292 7 -14 27 -55 44 -92 18 -37 43 -76 57 -87 23 -18 28 -19 72
-5 26 8 58 17 72 20 58 13 70 25 70 69 0 23 -11 88 -25 145 -14 56 -24 108
-22 114 3 6 8 -2 12 -19 4 -16 13 -39 20 -50 6 -11 22 -51 35 -90 13 -38 56
-135 96 -215 104 -210 124 -254 124 -281 0 -13 7 -56 15 -94 8 -39 15 -75 15
-82 0 -13 -143 -9 -182 6 -29 11 -101 -2 -135 -25 -13 -8 -32 -33 -44 -55 -17
-34 -19 -51 -14 -93 9 -64 26 -105 54 -130 11 -11 21 -24 21 -30 0 -6 12 -28
26 -49 14 -21 27 -47 29 -57 2 -11 6 -24 10 -29 10 -18 -31 -76 -80 -113 -98
-74 -76 -138 45 -138 43 0 157 33 213 62 37 18 39 21 32 56 -6 39 -28 106 -51
159 -8 17 -14 54 -14 83 0 46 2 51 18 45 87 -38 135 -48 248 -53 127 -5 244
13 288 43 11 8 26 15 33 15 22 0 15 -72 -12 -128 -23 -48 -39 -99 -52 -164 -4
-23 0 -30 28 -47 49 -30 178 -71 222 -71 21 0 54 7 74 15 32 14 35 18 29 46
-6 30 -22 48 -82 91 -17 12 -38 37 -47 56 -15 34 -15 35 30 121 25 47 48 88
52 91 35 27 62 151 43 200 -27 69 -131 122 -199 101 -15 -5 -60 -12 -100 -15
l-72 -5 5 37 c9 69 37 187 50 212 7 14 34 68 59 120 26 52 52 102 59 110 22
27 63 124 85 200 13 41 28 84 35 95 7 11 16 34 21 50 4 17 9 25 12 19 2 -6 -8
-59 -22 -118 -32 -138 -33 -179 -2 -194 12 -6 33 -13 47 -16 14 -3 46 -12 72
-20 43 -14 49 -13 70 3 35 28 115 193 143 296 9 33 20 69 25 80 14 31 40 169
40 213 0 22 -6 44 -12 49 -7 6 -53 22 -101 37 -71 23 -90 26 -102 16 -19 -15
-86 -155 -109 -227 -17 -52 -38 -68 -50 -38 -3 8 -15 15 -26 15 -11 0 -20 4
-20 9 0 20 -131 33 -137 14 -2 -6 -27 -6 -66 0 -81 12 -463 12 -547 -1 -47 -7
-70 -6 -85 2 -29 17 -125 5 -125 -15 0 -5 -9 -9 -20 -9 -11 0 -23 -7 -26 -15
-12 -31 -32 -13 -54 48 -28 79 -78 187 -98 210 -19 21 -20 21 -117 -11z m1000
-262 c59 -4 109 -10 112 -13 2 -3 0 -15 -7 -27 -9 -16 -8 -28 4 -52 9 -17 16
-41 16 -54 0 -13 12 -32 28 -44 l27 -21 -37 3 c-35 4 -36 3 -58 -52 -45 -111
-95 -170 -145 -170 -11 0 -11 5 1 30 9 16 19 32 25 35 5 4 9 40 9 81 0 55 -5
85 -20 113 -52 103 -172 126 -267 53 -47 -35 -59 -64 -68 -155 -5 -63 -4 -82
8 -95 16 -17 40 -72 32 -72 -16 0 -64 28 -83 49 -25 27 -82 143 -82 166 0 11
-11 15 -40 15 -33 0 -38 3 -33 18 3 9 13 26 22 37 9 11 24 36 35 56 14 30 16
41 6 59 -6 12 -9 24 -7 27 17 17 367 26 522 13z"/>
</g>
</svg>
